<?xml version="1.0" encoding="utf-8"?>
<!-- Generator: Adobe Illustrator 21.1.0, SVG Export Plug-In . SVG Version: 6.00 Build 0)  -->
<svg version="1.1" xmlns="http://www.w3.org/2000/svg" xmlns:xlink="http://www.w3.org/1999/xlink" x="0px" y="0px"
	 viewBox="0 0 42 42" style="enable-background:new 0 0 42 42;" xml:space="preserve">
<style type="text/css">
	.st0{fill:#3D6480;}
	.st1{font-family:'MyriadPro-Regular';}
	.st2{font-size:37.7187px;}
	.st3{display:none;}
	.st4{display:inline;}
	.st5{fill:#0CB20F;}
	.st6{display:inline;fill:none;}
	.st7{display:inline;fill:#3D6480;}
	.st8{display:inline;fill:#FFEBCD;}
	.st9{display:inline;fill:#0CB20F;}
	.st10{fill:#3D6480;stroke:#3D6480;stroke-width:1.3;stroke-miterlimit:3.8637;}
	.st11{fill:#FFFFFF;}
	.st12{fill-rule:evenodd;clip-rule:evenodd;fill:none;}
	.st13{fill-rule:evenodd;clip-rule:evenodd;fill:none;stroke:#EA102A;stroke-width:1.9;stroke-miterlimit:3.8637;}
	.st14{fill:#FF9C04;}
	.st15{fill:#EC0800;}
</style>
<g id="_x2D_----_Artwork">
	<g>
		<path class="st0" d="M39,1c1.1,0,2,0.9,2,2v36c0,1.1-0.9,2-2,2H3c-1.1,0-2-0.9-2-2V3c0-1.1,0.9-2,2-2H39 M39,0H3C1.3,0,0,1.3,0,3
			v36c0,1.7,1.3,3,3,3h36c1.7,0,3-1.3,3-3V3C42,1.3,40.7,0,39,0L39,0z"/>
	</g>
	<text transform="matrix(1.227 0 0 1 7.9995 31.5703)" class="st0 st1 st2">#</text>
</g>
<g id="_x2D_----_Action_Indicators">
	<g id="Wait" class="st3">
		<g class="st4">
			<polygon class="st0" points="33.3,29.6 33.3,32.3 35.1,34.1 34,35.2 31.8,33 31.8,29.6 			"/>
			<path class="st0" d="M32.6,26.2c3.5,0,6.4,2.9,6.4,6.4c0,3.5-2.9,6.4-6.4,6.4c-3.5,0-6.4-2.9-6.4-6.4
				C26.2,29.1,29.1,26.2,32.6,26.2z M32.6,27.7c-2.7,0-4.9,2.2-4.9,4.9c0,2.7,2.2,4.9,4.9,4.9c2.7,0,4.9-2.2,4.9-4.9
				C37.5,29.9,35.3,27.7,32.6,27.7z"/>
		</g>
	</g>
	<g id="Validate" class="st3">
		<g class="st4">
			<polygon class="st5" points="30.6,39.1 27,35.4 28.3,34.1 30.6,36.4 37.6,29.5 38.9,30.8 			"/>
		</g>
	</g>
	<g id="Upsert" class="st3">
		<g class="st4">
			<path class="st5" d="M9.9,14.7H8V7.9C8,6,6.4,4.4,4.5,4.4H3.9V2.5h0.6c3,0,5.4,2.4,5.4,5.4V14.7z"/>
			<polygon class="st5" points="8.9,16.1 4.7,11.8 6,10.5 8.9,13.4 11.8,10.5 13.2,11.8 			"/>
		</g>
	</g>
	<g id="Update" class="st3">
		<g class="st4">
			<path class="st5" d="M35.5,37.5c-1.2,0.9-2.6,1.4-4.2,1.4c-3.8,0-6.8-3-6.9-6.7h-1.7l2.6-3.7l2.6,3.7h-1.8
				c0.1,2.7,2.4,4.9,5.1,4.9c1.2,0,2.2-0.4,3.1-1L35.5,37.5z"/>
			<path class="st5" d="M26.8,27.1c1.2-0.9,2.6-1.4,4.2-1.4c3.8,0,6.8,3,6.9,6.7h1.7L36.9,36l-2.6-3.7h1.8c-0.1-2.7-2.4-4.9-5.1-4.9
				c-1.2,0-2.2,0.4-3.1,1L26.8,27.1z"/>
		</g>
	</g>
	<g id="Search__x2F__Lookup__x2F__Exists" class="st3">
		<g class="st4">
			<path class="st0" d="M32.1,36.6c-2.7,0-4.9-2.2-4.9-4.9s2.2-4.9,4.9-4.9c2.7,0,4.9,2.2,4.9,4.9S34.8,36.6,32.1,36.6z M32.1,28.4
				c-1.9,0-3.4,1.5-3.4,3.4s1.5,3.4,3.4,3.4c1.9,0,3.4-1.5,3.4-3.4S33.9,28.4,32.1,28.4z"/>
			
				<rect x="35.9" y="34.4" transform="matrix(0.7071 -0.7071 0.7071 0.7071 -15.1123 36.8087)" class="st0" width="1.9" height="4.5"/>
		</g>
	</g>
	<g id="Set" class="st3">
		<g class="st4">
			<polygon class="st0" points="30.5,37.5 27.4,34.4 28.8,33 30.5,34.8 36.1,29.3 37.4,30.6 			"/>
			<path class="st0" d="M38.6,39.5H26.2V27.1h12.4V39.5z M27,38.7h10.8V27.9H27V38.7z"/>
		</g>
	</g>
	<g id="Move" class="st3">
		<g class="st4">
			<rect x="27" y="32.6" class="st0" width="10.3" height="1.7"/>
			<polygon class="st0" points="34.9,37.1 33.7,35.9 36.1,33.5 33.6,31 34.8,29.8 38.5,33.5 			"/>
		</g>
	</g>
	<g id="Output__x2F__Upload__x2F__Export__x2F__Insert__x2F__Put__x2F__Write" class="st3">
		<path class="st6" d="M39,0.5H3C1.6,0.5,0.5,1.6,0.5,3v36c0,1.4,1.1,2.5,2.5,2.5h36c1.4,0,2.5-1.1,2.5-2.5V3
			C41.5,1.6,40.4,0.5,39,0.5z M11.7,11.8l-6.4,0V9.9l3.1,0L3.3,4.7l1.3-1.3l5.2,5.2V5.5h1.9V11.8z"/>
		<polygon class="st7" points="9.8,8.5 4.6,3.3 3.3,4.7 8.5,9.9 5.3,9.9 5.3,11.8 11.7,11.8 11.7,5.5 9.8,5.5 		"/>
	</g>
	<g id="Input__x2F__Import__x2F__Get__x2F__Download__x2F__Extract__x2F__Read" class="st3">
		<polygon class="st7" points="37,33 37,35.7 31.8,30.5 30.5,31.8 35.8,37 33,37 33,39 39,39 39,33 		"/>
	</g>
	<g id="Bulk_Load" class="st3">
		<polygon class="st8" points="39.6,30.1 38.5,28.4 38.5,27.5 33.2,25.3 31.4,27.1 29.6,25.3 24.5,27.5 24.5,28.4 23,30.3 24.5,31 
			24.5,35.7 31.5,39.2 38.5,35.7 38.5,30.7 		"/>
		<path class="st7" d="M38.4,27.4l-4-1.7l-0.4,0.9l2.7,1.1l-5.3,2.7l-5.4-2.7l2.6-1.1l-0.4-0.9l-3.8,1.6l-2.2,3l2.2,1.2v4.1l7,3.5
			l7-3.5v-4.4l1.9-1L38.4,27.4z M25,27.7L25,27.7L25,27.7L25,27.7L25,27.7z M23.7,30.1l1.4-1.8l5.6,2.8L29.3,33L23.7,30.1z M25.4,32
			l4.1,2.2l1.5-2.1V38l-5.7-2.9V32z M37.5,35.1l-5.9,3v-6.3l1.6,2.4l4.3-2.4V35.1z M33.4,32.9l-1.2-1.8l5.6-2.9l1.1,1.7L33.4,32.9z"
			/>
		<path class="st9" d="M33.5,24.9l-1.6,1.6v-1.7c0-2.8-1.2-4.1-3.9-4.1v1c2.2,0,2.9,0.8,2.9,3v1.7l-1.7-1.7l-0.7,0.7l2.9,2.9
			l2.8-2.8L33.5,24.9z"/>
	</g>
	<g id="Generator__x2F__Processor" class="st3">
		<g class="st4">
			<path class="st10" d="M32.7,37.9L32.3,39c-0.2,0-0.4,0-0.6-0.1l-0.1-1.2c0-0.2-0.1-0.3-0.3-0.4c-0.4-0.1-0.7-0.3-1.1-0.5
				c-0.2-0.1-0.4-0.1-0.5,0l-0.2,0.1l-1,0.5l-0.2-0.2L28.3,37l0.7-1c0.1-0.2,0.1-0.4,0-0.5c-0.2-0.3-0.4-0.7-0.5-1.1
				c-0.1-0.2-0.2-0.3-0.4-0.3l-1.2-0.1c0-0.2,0-0.4,0-0.6l1.2-0.4c0.2-0.1,0.3-0.2,0.3-0.4c0.1-0.4,0.2-0.8,0.3-1.1
				c0.1-0.2,0-0.4-0.1-0.5l-0.8-0.9c0.1-0.2,0.2-0.3,0.4-0.5l1.1,0.5c0.2,0.1,0.4,0,0.5-0.1c0.3-0.3,0.6-0.5,1-0.7
				c0.2-0.1,0.3-0.3,0.3-0.4L31,27.7c0.2-0.1,0.4-0.1,0.6-0.1l0.5,1.1c0.1,0.2,0.2,0.3,0.4,0.3c0.4,0,0.8,0,1.2,0.1
				c0.2,0,0.4,0,0.5-0.2l0.7-1c0.2,0.1,0.4,0.2,0.5,0.3l-0.3,1.2c0,0.2,0,0.4,0.2,0.5c0.2,0.1,0.3,0.3,0.4,0.4
				c0.1,0.1,0.3,0.3,0.4,0.4c0.1,0.1,0.3,0.2,0.5,0.2l1.2-0.3c0.1,0.2,0.2,0.4,0.2,0.5l-1,0.7c-0.1,0.1-0.2,0.3-0.2,0.5
				c0.1,0.4,0.1,0.8,0.1,1.2c0,0.2,0.1,0.4,0.2,0.5l1.1,0.5c0,0.2-0.1,0.4-0.2,0.6l-1.2-0.1c-0.2,0-0.4,0.1-0.4,0.2
				c-0.2,0.3-0.4,0.7-0.7,1c-0.1,0.1-0.2,0.3-0.1,0.5l0.5,1.1c-0.2,0.1-0.3,0.2-0.5,0.3l-0.9-0.8c-0.1-0.1-0.3-0.2-0.5-0.1
				c-0.4,0.1-0.8,0.2-1.2,0.3C32.9,37.5,32.7,37.7,32.7,37.9z"/>
			<circle class="st11" cx="32.6" cy="33.3" r="3.6"/>
		</g>
	</g>
	<g id="Execute___x2F__Call" class="st3">
		<g class="st4">
			<path class="st12" d="M0,3c0-1.7,1.3-3,3-3h36c1.7,0,3,1.3,3,3v36c0,1.7-1.3,3-3,3H3c-1.7,0-3-1.3-3-3"/>
			<path class="st5" d="M27.5,39V27.9l11.9,5.6L27.5,39z M29.3,30.8v5.3l5.7-2.7L29.3,30.8z"/>
		</g>
	</g>
	<g id="Delete" class="st3">
		<g class="st4">
			<line class="st13" x1="31.3" y1="31.1" x2="38.4" y2="38.3"/>
			<line class="st13" x1="31.3" y1="38.3" x2="38.4" y2="31.1"/>
		</g>
	</g>
	<g id="Decrypt" class="st3">
		<g class="st4">
			<path class="st0" d="M39,30.9V39h-9.7v-8.1H39z M37.5,32.4h-6.7v5.1h6.7V32.4z"/>
			<path class="st0" d="M24.6,31.4v-1.6c0-2.3,1.6-3.8,3.7-3.8s3.7,1.5,3.7,3.8v1.8h-1.5v-1.8c0-1.4-1-2.3-2.2-2.3s-2.2,0.8-2.2,2.3
				v1.6H24.6z"/>
			<rect x="33.6" y="34.1" class="st0" width="1" height="1.6"/>
		</g>
	</g>
	<g id="Encrypt">
		<g>
			<path class="st0" d="M39,30.9V39h-9.7v-8.1H39z M37.5,32.4h-6.7v5.1h6.7V32.4z"/>
			<path class="st0" d="M30.5,31.4v-1.6c0-2.3,1.6-3.8,3.7-3.8c2,0,3.7,1.5,3.7,3.8v1.8h-1.5v-1.8c0-1.4-1-2.3-2.2-2.3
				c-1.2,0-2.2,0.8-2.2,2.3v1.6H30.5z"/>
			<rect x="33.6" y="34.1" class="st0" width="1" height="1.6"/>
		</g>
	</g>
	<g id="Create" class="st3">
		<g class="st4">
			<path class="st14" d="M32.9,34.8h0.6l0.4,0.4l0.4-0.4h0.6v-0.6l0.4-0.4l-0.4-0.4v-0.6h-0.6l-0.4-0.4l-0.4,0.4h-0.6v0.6l-0.4,0.4
				l0.4,0.4V34.8z M37.2,31.9l-1,1h2.8v1.9l-2.8,0l1,1l-1.3,1.3l-1-1v2.8h-1.9v-2.8l-1,1l-1.3-1.3l1-1l-2.8,0v-1.9h2.8l-1-1l1.3-1.3
				l1,1v-2.8h1.9v2.8l1-1L37.2,31.9z"/>
		</g>
	</g>
	<g id="Compare" class="st3">
		<g class="st4">
			<polygon class="st0" points="29.1,38.9 24,33.9 29.1,28.8 30.4,30.2 26.7,33.9 30.4,37.6 			"/>
			<polygon class="st0" points="34.1,38.9 32.7,37.6 36.4,33.9 32.7,30.2 34,28.8 39.1,33.9 			"/>
			<rect x="25.4" y="32.9" class="st0" width="12.4" height="1.9"/>
		</g>
	</g>
	<g id="Block" class="st3">
		<g class="st4">
			<path class="st15" d="M33.6,38.9c-2.6,0-4.8-2.1-4.8-4.8s2.1-4.8,4.8-4.8c2.6,0,4.8,2.1,4.8,4.8S36.2,38.9,33.6,38.9z M33.6,30.5
				c-2,0-3.6,1.6-3.6,3.6s1.6,3.6,3.6,3.6c2,0,3.6-1.6,3.6-3.6S35.6,30.5,33.6,30.5z"/>
			
				<rect x="32.9" y="29.8" transform="matrix(0.7072 -0.707 0.707 0.7072 -14.2524 33.6609)" class="st15" width="1.2" height="8.5"/>
		</g>
	</g>
</g>
</svg>
